<?xml version="1.0" standalone="no"?>
<!DOCTYPE svg PUBLIC "-//W3C//DTD SVG 20010904//EN"
 "http://www.w3.org/TR/2001/REC-SVG-20010904/DTD/svg10.dtd">
<svg version="1.0" xmlns="http://www.w3.org/2000/svg"
 width="228.000000pt" height="271.000000pt" viewBox="0 0 228.000000 271.000000"
 preserveAspectRatio="xMidYMid meet">

<g transform="translate(0.000000,271.000000) scale(0.100000,-0.100000)"
fill="#000000" stroke="none">
<path d="M1818 2644 c-25 -26 -26 -26 -6 -46 19 -19 19 -19 47 11 26 28 27 31
11 46 -21 19 -21 20 -52 -11z"/>
<path d="M1870 2585 c-24 -25 -24 -26 -4 -45 20 -20 20 -20 48 9 24 25 27 33
16 46 -18 21 -33 19 -60 -10z"/>
<path d="M1930 2525 c-22 -24 -23 -26 -7 -42 16 -16 19 -16 44 9 22 23 24 29
13 42 -17 21 -23 20 -50 -9z"/>
<path d="M1991 2476 c-60 -60 -64 -86 -18 -120 l27 -20 55 54 c62 61 68 88 29
119 -15 12 -30 21 -33 21 -4 0 -31 -24 -60 -54z"/>
<path d="M2078 2374 l-26 -26 20 -20 20 -20 27 26 c20 21 24 30 15 43 -16 26
-27 25 -56 -3z"/>
<path d="M1906 2327 c21 -25 42 -46 45 -46 15 -2 18 33 6 57 -9 21 -20 28 -52
30 l-39 3 40 -44z"/>
<path d="M2130 2315 c-24 -25 -24 -26 -4 -45 20 -20 20 -20 48 9 24 25 27 33
16 46 -18 21 -33 19 -60 -10z"/>
<path d="M1812 2311 c-27 -16 27 -91 76 -105 32 -10 29 21 -4 36 -14 7 -33 27
-42 45 -12 23 -21 30 -30 24z"/>
<path d="M1726 2288 c15 -50 23 -65 50 -97 26 -32 93 -70 122 -71 26 0 10 29
-22 40 -43 14 -105 80 -113 120 -4 21 -11 30 -25 30 -15 0 -18 -4 -12 -22z"/>
<path d="M2191 2258 c-22 -27 -23 -31 -7 -46 15 -15 18 -14 43 11 27 27 27 27
8 46 -20 19 -20 19 -44 -11z"/>
<path d="M1034 2239 c-3 -5 -14 -9 -25 -9 -10 0 -19 -5 -19 -11 0 -6 6 -9 13
-6 6 2 21 1 31 -3 20 -7 20 -7 0 -11 -10 -3 -35 -2 -54 2 -19 3 -27 7 -17 8 9
0 17 5 17 11 0 10 -55 3 -80 -11 -13 -7 -13 -9 0 -9 10 -1 9 -4 -5 -10 -17 -7
-17 -9 -2 -9 9 -1 17 -5 17 -10 0 -14 51 -5 62 10 7 11 11 11 15 2 6 -16 43
-17 43 -2 0 5 5 7 11 4 6 -4 17 1 25 11 13 18 15 18 28 2 14 -19 32 -25 21 -8
-3 6 1 10 9 10 9 0 16 5 16 11 0 6 -10 8 -22 5 -23 -6 -23 -6 0 6 19 9 25 9
32 -1 4 -8 13 -12 19 -10 6 3 7 9 2 18 -10 16 -127 25 -137 10z m51 -9 c3 -5
1 -10 -4 -10 -6 0 -11 5 -11 10 0 6 2 10 4 10 3 0 8 -4 11 -10z m-145 -50 c0
-5 -2 -10 -4 -10 -3 0 -8 5 -11 10 -3 6 -1 10 4 10 6 0 11 -4 11 -10z"/>
<path d="M1187 2243 c-13 -13 -7 -20 16 -18 12 1 31 -1 42 -6 15 -7 12 -8 -13
-5 -18 3 -38 -1 -45 -8 -6 -7 -19 -11 -29 -8 -10 2 -18 -1 -18 -6 0 -6 -19
-17 -42 -23 -59 -17 -93 -42 -113 -85 -24 -51 -15 -81 56 -187 105 -156 84
-153 172 -24 42 62 79 124 82 139 16 64 -39 139 -112 153 l-38 7 34 14 c39 16
44 17 37 6 -4 -7 155 -46 224 -55 8 -1 18 -6 22 -12 5 -6 8 -5 8 3 0 7 -7 15
-16 19 -15 5 -15 7 0 15 23 13 57 -11 46 -33 -11 -19 12 -29 45 -20 20 6 29
32 11 30 -5 0 -13 5 -18 13 -6 9 -7 6 -3 -9 4 -14 2 -23 -4 -23 -10 0 -16 21
-12 43 1 6 -14 10 -21 5 -2 -1 -13 4 -25 11 -16 8 -23 8 -23 1 0 -7 -7 -8 -17
-2 -10 4 -51 7 -90 6 -40 -1 -75 1 -78 6 -2 4 22 7 55 6 33 -2 65 2 72 7 10 6
9 7 -3 4 -9 -3 -22 0 -28 6 -9 9 -14 9 -20 -1 -6 -10 -10 -10 -20 2 -7 8 -20
15 -29 15 -24 0 -50 6 -58 14 -9 9 -39 9 -47 0z m237 -84 c-3 -5 -10 -7 -15
-3 -5 3 -7 10 -3 15 3 5 10 7 15 3 5 -3 7 -10 3 -15z m-37 5 c-3 -3 -12 -4
-19 -1 -8 3 -5 6 6 6 11 1 17 -2 13 -5z m-217 -79 c55 -28 30 -105 -33 -105
-88 0 -87 96 1 119 2 1 16 -6 32 -14z"/>
<path d="M858 2193 c0 -10 -1 -24 -1 -30 1 -7 -4 -10 -9 -7 -5 3 -7 12 -4 20
3 7 1 16 -4 19 -4 3 -7 -6 -5 -20 1 -14 -2 -28 -6 -31 -5 -3 -9 2 -9 10 0 9
-6 16 -12 16 -9 0 -8 4 2 10 18 12 2 12 -25 0 -11 -5 -14 -9 -7 -9 7 -1 10 -6
7 -11 -5 -8 -11 -8 -20 0 -12 10 -82 -18 -129 -53 -16 -12 -17 -15 -3 -29 9
-9 13 -19 9 -23 -4 -5 -1 -5 6 -1 6 4 12 15 12 24 0 13 2 14 9 4 10 -17 23
-15 34 4 4 8 16 14 26 14 9 0 26 7 37 16 10 8 14 13 9 10 -6 -2 -17 -1 -24 4
-8 5 4 7 32 5 25 -2 56 3 70 10 14 7 28 11 31 7 3 -3 6 0 6 6 0 7 -6 12 -14
12 -9 0 -12 7 -9 20 3 11 3 20 -1 20 -3 0 -7 -8 -8 -17z m-122 -75 c5 -8 2 -9
-11 -5 -11 5 -22 1 -31 -10 -12 -17 -13 -17 -11 2 1 23 41 33 53 13z m-76 -18
c-24 -15 -36 -11 -14 4 10 8 21 12 24 10 2 -3 -2 -9 -10 -14z"/>
<path d="M1075 2190 c-3 -5 -1 -10 4 -10 6 0 11 5 11 10 0 6 -2 10 -4 10 -3 0
-8 -4 -11 -10z"/>
<path d="M1460 2156 c0 -2 7 -7 16 -10 8 -3 12 -2 9 4 -6 10 -25 14 -25 6z"/>
<path d="M1579 2133 c-1 -4 -1 -12 0 -16 1 -5 -8 -11 -19 -14 l-21 -6 21 -14
c12 -8 24 -12 28 -8 3 3 0 10 -8 16 -11 7 -7 8 13 3 22 -5 27 -3 27 12 0 16
-2 17 -10 4 -8 -13 -10 -13 -10 2 0 17 -19 36 -21 21z"/>
<path d="M1617 2087 c-14 -14 -16 -22 -8 -30 8 -8 14 -7 24 2 10 12 8 13 -8 7
-19 -6 -19 -5 -1 8 10 8 16 19 15 23 -2 5 -12 0 -22 -10z"/>
<path d="M1649 2090 c-5 -49 -2 -56 50 -92 49 -34 56 -37 71 -23 9 8 20 15 25
15 5 0 0 -6 -10 -14 -24 -17 -13 -50 14 -41 10 3 24 -1 31 -10 7 -8 20 -15 29
-15 14 0 14 -2 1 -10 -10 -6 -21 -3 -37 12 -13 12 -23 16 -23 10 0 -6 8 -17
18 -24 24 -17 108 -121 143 -177 21 -32 30 -40 34 -29 4 10 15 14 28 12 12 -2
16 -2 10 2 -7 3 -13 13 -13 21 0 11 -6 8 -20 -8 -10 -13 -19 -19 -20 -13 0 5
6 16 13 23 10 11 10 13 0 7 -7 -4 -13 -3 -13 3 0 5 8 12 18 14 12 3 10 5 -8 7
-14 1 -28 2 -32 1 -4 0 -5 6 -2 14 7 18 21 19 27 3 4 -10 6 -10 6 0 1 17 -32
29 -37 14 -6 -19 -20 -14 -33 11 -11 19 -10 20 3 9 12 -10 18 -10 27 2 10 11
9 16 -2 23 -7 4 -16 16 -20 26 -4 9 -17 22 -29 27 -13 5 -19 9 -13 9 14 1 -62
77 -125 125 -77 58 -110 78 -111 66z m27 -36 c-11 -7 -13 -14 -6 -17 6 -3 6
-5 -1 -3 -7 1 -13 11 -14 23 -1 15 3 19 18 15 19 -5 19 -6 3 -18z m88 -50 c3
-7 -2 -15 -9 -18 -17 -6 -57 25 -61 47 -2 14 1 14 32 0 18 -9 35 -22 38 -29z
m70 -53 c9 -7 16 -18 16 -24 0 -5 -8 -3 -18 6 -10 10 -26 17 -36 17 -9 0 -15
4 -12 9 8 12 30 8 50 -8z m48 -75 c7 4 8 2 4 -4 -4 -7 -3 -12 3 -12 5 0 11 5
13 12 3 7 11 -1 20 -18 14 -29 14 -30 -5 -29 -21 2 -58 40 -56 59 0 7 2 6 6
-2 2 -6 10 -9 15 -6z"/>
<path d="M1720 2010 c13 -11 26 -17 29 -14 7 6 -28 34 -42 34 -6 0 0 -9 13
-20z"/>
<path d="M601 2085 c3 -20 -2 -30 -9 -17 -7 9 -15 7 -35 -12 -15 -14 -27 -23
-27 -20 0 8 -21 -16 -47 -53 -29 -41 -14 -51 32 -23 19 12 35 24 35 26 0 3 -4
2 -10 -1 -5 -3 -10 -4 -10 -1 0 3 16 12 35 20 19 8 35 20 35 26 0 6 5 8 10 5
18 -11 23 26 6 43 -10 9 -16 13 -15 7z m19 -35 c0 -5 -3 -9 -7 -9 -20 3 -34
-2 -28 -11 3 -6 -1 -7 -9 -4 -9 3 -16 10 -16 14 0 7 10 11 53 19 4 0 7 -3 7
-9z m-55 -30 c3 -5 -1 -10 -9 -10 -9 0 -16 5 -16 10 0 6 4 10 9 10 6 0 13 -4
16 -10z m-35 -10 c0 -5 -5 -10 -11 -10 -5 0 -7 5 -4 10 3 6 8 10 11 10 2 0 4
-4 4 -10z m-10 -30 c0 -5 -4 -10 -10 -10 -5 0 -10 5 -10 10 0 6 5 10 10 10 6
0 10 -4 10 -10z"/>
<path d="M449 1970 c-1 -5 -2 -16 -3 -22 0 -7 -7 -14 -13 -14 -23 -3 -24 -4
-13 -24 9 -16 8 -20 -5 -20 -8 0 -15 7 -15 15 0 11 -8 8 -30 -12 -16 -14 -30
-32 -30 -40 0 -7 -4 -13 -8 -13 -5 0 -19 -14 -31 -31 -19 -26 -20 -29 -4 -21
10 6 22 10 28 10 5 0 11 6 14 13 2 7 -1 9 -8 5 -6 -4 -11 -2 -11 3 0 11 5 12
45 15 29 2 45 15 38 31 -9 24 -26 17 -20 -7 6 -22 6 -22 -9 -4 -18 26 -2 46
24 29 14 -8 23 -7 37 3 18 14 18 14 0 28 -18 13 -17 14 8 11 23 -3 25 -1 17
14 -6 12 -5 22 2 29 9 9 9 12 0 12 -7 0 -13 -4 -13 -10z"/>
<path d="M345 1819 c3 -4 -1 -22 -10 -39 -16 -31 -32 -42 -21 -15 3 8 1 15 -4
15 -6 0 -10 -7 -10 -15 0 -8 -4 -15 -10 -15 -5 0 -10 5 -10 11 0 5 -5 7 -10 4
-6 -4 -8 -11 -5 -16 4 -5 1 -9 -5 -9 -7 0 -8 -6 0 -19 6 -13 7 -28 1 -43 -7
-17 -10 -19 -10 -5 -1 9 -8 17 -17 17 -14 0 -14 -1 0 -16 14 -14 14 -34 0 -34
-3 0 -3 4 1 9 3 5 1 12 -5 16 -5 3 -10 -1 -10 -10 0 -10 -5 -13 -12 -9 -7 4
-8 3 -4 -4 4 -7 2 -12 -4 -12 -6 0 -8 -4 -5 -10 3 -5 1 -10 -5 -10 -6 0 -8 -4
-5 -10 3 -5 3 -10 -2 -10 -4 0 -9 -12 -10 -26 0 -15 -11 -39 -22 -55 -12 -16
-16 -29 -10 -29 13 0 3 -51 -13 -61 -5 -3 0 -9 11 -12 12 -3 21 -10 21 -16 0
-9 -5 -9 -21 -1 -11 7 -23 9 -27 6 -3 -3 0 -6 7 -6 7 0 9 -4 6 -10 -3 -5 1
-10 9 -10 11 0 16 -9 16 -26 0 -27 -21 -29 -28 -3 -3 11 -1 11 8 -1 10 -13 11
-13 7 0 -2 8 -12 17 -21 18 -15 3 -16 1 -6 -18 10 -18 8 -26 -9 -44 -19 -20
-21 -34 -21 -149 0 -78 4 -128 11 -132 17 -11 19 -2 22 93 1 49 5 84 9 77 5
-7 6 -49 4 -92 -5 -90 2 -142 15 -121 14 21 11 -5 -6 -52 -17 -49 -19 -70 -6
-70 5 0 7 10 5 23 -4 20 -4 20 5 2 5 -11 5 -27 0 -37 -12 -23 -11 -31 3 -22 8
5 9 2 4 -11 -5 -15 -4 -16 9 -5 15 12 16 35 1 58 -5 8 -4 18 2 24 6 6 16 -16
28 -64 10 -40 17 -77 16 -81 -1 -5 2 -6 7 -3 17 11 22 -27 6 -50 -14 -22 -14
-26 1 -49 9 -14 20 -22 25 -19 5 3 9 -2 9 -11 0 -8 7 -18 15 -21 8 -4 12 -11
9 -16 -4 -6 -10 -5 -15 3 -4 7 -10 11 -13 9 -2 -3 4 -16 15 -30 18 -23 20 -24
33 -7 11 15 32 17 160 17 l146 0 0 -54 c0 -29 3 -81 6 -115 l7 -61 53 0 c40 0
54 4 54 14 0 12 5 12 30 -1 50 -25 120 5 120 51 1 19 2 18 16 -6 21 -39 43
-48 119 -48 49 0 67 4 71 15 8 19 34 19 34 0 0 -10 11 -15 35 -15 28 0 35 4
35 20 0 17 -25 117 -45 181 -4 13 -2 19 9 19 11 0 16 -9 16 -30 0 -20 5 -30
15 -30 12 0 15 -16 15 -80 l0 -80 34 0 35 0 7 80 c5 61 10 80 22 80 12 0 14
-14 10 -80 l-5 -80 39 0 38 0 0 110 c0 104 1 110 21 110 19 0 19 -1 5 -22 -30
-42 -18 -166 18 -190 24 -16 93 -8 112 13 26 29 33 140 10 174 -16 24 -16 25
6 25 23 0 23 -1 20 -115 l-4 -115 36 0 c32 0 36 3 37 28 l1 27 11 -27 c9 -24
17 -28 48 -28 l37 0 7 115 7 116 135 -2 c75 0 140 4 145 9 6 6 0 8 -16 5 -22
-5 -26 -2 -25 18 1 17 3 19 6 6 2 -9 9 -17 14 -17 12 0 12 17 -1 25 -6 4 -8
10 -6 14 3 4 -11 5 -29 3 l-34 -4 -177 265 c-164 247 -190 297 -155 297 5 0
26 -24 48 -52 56 -79 299 -407 332 -451 26 -34 30 -36 44 -23 8 9 21 17 28 18
21 5 50 40 45 55 -3 7 -1 13 4 13 5 0 6 7 3 17 -5 12 -3 14 7 8 9 -6 11 -4 5
5 -4 7 -2 16 5 20 7 4 9 13 5 20 -6 9 -9 9 -15 0 -5 -9 -10 -6 -15 10 -5 17
-2 27 11 37 10 7 13 13 6 13 -8 0 -9 7 -2 26 6 14 8 29 5 34 -3 4 2 10 10 14
11 4 15 -2 15 -19 0 -14 5 -25 11 -25 6 0 8 8 4 19 -3 11 -2 22 3 25 15 9 19
96 9 166 l-7 45 14 -35 14 -35 1 60 c1 44 -2 56 -10 45 -7 -11 -8 -3 -4 28 7
43 -9 62 -18 22 -4 -18 -5 -18 -5 2 0 39 -2 44 -12 28 -8 -13 -10 -13 -10 1 0
9 7 19 15 23 9 3 15 0 15 -9 0 -8 5 -15 11 -15 6 0 8 7 5 16 -3 9 -6 24 -6 35
0 10 -4 19 -10 19 -5 0 -10 -7 -10 -15 0 -9 -6 -12 -15 -9 -8 4 -15 10 -15 16
0 5 4 7 9 3 12 -7 24 12 27 42 2 18 0 20 -11 10 -7 -6 -11 -15 -9 -19 2 -4 1
-9 -4 -12 -10 -6 -46 100 -38 113 3 5 -1 26 -10 46 -16 40 -12 71 8 59 10 -5
10 -4 1 6 -10 10 -15 11 -27 1 -10 -8 -16 -9 -21 -1 -4 6 -1 9 5 8 7 -2 16 7
20 18 7 19 6 21 -13 17 -21 -5 -21 -5 -3 9 20 15 14 44 -6 32 -7 -5 -9 -2 -6
7 4 9 -2 14 -18 15 -12 1 -25 -4 -28 -12 -3 -8 0 -11 8 -8 7 3 19 -3 27 -12 8
-10 9 -15 2 -11 -6 4 -14 3 -18 -3 -3 -5 -1 -10 5 -10 6 0 9 -4 6 -9 -7 -10
33 -104 45 -109 5 -2 7 -7 4 -12 -2 -4 7 -52 21 -106 20 -79 25 -125 26 -224
1 -146 -10 -224 -49 -354 -3 -11 -1 -16 5 -12 5 3 13 -1 16 -10 9 -24 7 -27
-9 -14 -19 15 -19 15 -40 -35 l-16 -40 -19 25 c-10 14 -104 130 -208 259 -170
210 -189 237 -181 258 5 14 9 48 9 78 0 43 -5 59 -26 85 -15 17 -25 32 -23 33
2 1 13 7 24 13 11 6 20 20 20 30 0 26 -69 33 -95 9 -16 -15 -20 -11 -52 58
-73 153 -125 181 -338 181 -210 0 -262 -27 -335 -174 -21 -41 -39 -77 -41 -79
-2 -2 -10 4 -19 13 -17 17 -90 22 -99 8 -8 -13 23 -52 40 -52 20 0 18 -14 -6
-35 -30 -27 -41 -78 -28 -140 12 -64 38 -27 -314 -456 l-96 -118 -25 62 c-37
92 -67 236 -75 353 -4 57 -5 104 -1 104 3 0 9 30 13 68 4 37 16 98 27 136 11
38 18 77 16 87 -3 11 -2 17 2 14 10 -6 43 64 36 76 -4 5 -1 9 5 9 6 0 8 5 5
10 -3 6 -1 10 4 10 6 0 10 3 10 8 -2 12 25 72 33 72 4 0 22 21 39 48 18 26 37
50 43 54 6 4 9 8 6 9 -3 0 -13 2 -23 4 -9 2 -15 -1 -12 -6z m968 -131 c55 -19
76 -39 112 -102 18 -33 36 -68 40 -76 5 -13 -36 -15 -325 -15 -181 0 -330 3
-330 6 0 14 65 127 87 150 23 25 68 39 168 53 48 7 213 -4 248 -16z m-1083
-67 c0 -6 -5 -13 -11 -17 -8 -5 -8 -8 0 -13 8 -5 7 -13 -3 -26 -12 -17 -13
-16 -11 11 2 16 4 31 5 34 1 3 2 8 1 13 0 4 4 7 9 7 6 0 10 -4 10 -9z m-41
-146 c0 -5 -4 -3 -10 5 -8 12 -10 10 -6 -10 3 -14 2 -34 -3 -45 -5 -15 -8 -8
-11 27 -2 25 -1 44 4 41 4 -2 7 4 8 14 0 16 1 16 9 -2 5 -11 9 -24 9 -30z
m681 -160 c108 -56 72 -130 -51 -104 -61 13 -85 60 -58 111 9 17 17 19 47 13
20 -4 48 -13 62 -20z m651 1 c16 -34 -1 -78 -37 -95 -57 -28 -144 -13 -144 25
0 19 39 54 85 75 55 26 83 24 96 -5z m-1389 -49 c-5 -7 -12 -21 -15 -32 -4
-18 -5 -18 -6 3 0 12 -6 22 -12 22 -5 0 -7 5 -3 11 5 8 9 8 14 -1 11 -17 22 3
14 27 -5 17 -5 17 6 0 8 -12 8 -22 2 -30z m-35 -149 c-2 -13 -4 -3 -4 22 0 25
2 35 4 23 2 -13 2 -33 0 -45z m599 47 c6 -14 -313 -507 -344 -532 -18 -15 -68
-17 -77 -4 -3 6 36 66 87 134 51 69 142 190 201 271 59 80 112 146 118 146 5
0 12 -7 15 -15z m1451 -62 c-2 -16 -4 -3 -4 27 0 30 2 43 4 28 2 -16 2 -40 0
-55z m23 -74 c0 -11 -4 -17 -10 -14 -5 3 -10 13 -10 21 0 8 5 14 10 14 6 0 10
-9 10 -21z m-28 -32 c-3 -11 -1 -18 4 -14 5 3 10 -3 10 -14 0 -10 -4 -19 -8
-19 -4 0 -8 6 -8 13 0 8 -4 7 -10 -3 -8 -11 -9 -9 -6 10 3 14 5 36 5 50 1 18
4 21 10 11 5 -7 6 -22 3 -34z m-942 -85 l5 -82 -37 0 -38 0 -1 -107 c-1 -60
-3 -100 -6 -90 -3 10 -14 17 -30 17 l-26 0 7 166 c3 92 9 171 12 176 3 5 29 8
57 6 l52 -3 5 -83z m-1049 -15 c-8 -8 -11 -7 -11 4 0 20 13 34 18 19 3 -7 -1
-17 -7 -23z m806 -192 c18 -60 33 -111 33 -112 0 -11 -52 0 -56 12 -4 9 -19
15 -39 15 -20 0 -35 -6 -39 -15 -3 -8 -17 -15 -32 -15 -17 0 -24 4 -21 13 3 7
15 49 27 92 35 124 36 127 67 123 25 -3 29 -11 60 -113z m103 25 c0 -89 0 -90
25 -90 20 0 25 -5 25 -25 0 -23 -3 -25 -50 -25 l-50 0 0 115 0 115 25 0 c25 0
25 -1 25 -90z m193 79 c12 -7 25 -17 29 -23 13 -18 9 -53 -7 -66 -13 -11 -13
-14 0 -27 16 -15 20 -51 7 -69 -14 -21 -51 -34 -96 -34 l-46 0 0 115 0 115 46
0 c25 0 55 -5 67 -11z m204 -104 c18 -60 33 -111 33 -112 0 -11 -52 0 -56 12
-4 9 -19 15 -39 15 -20 0 -35 -6 -39 -15 -3 -8 -17 -15 -32 -15 -17 0 -24 4
-21 13 3 7 15 49 27 92 35 124 36 127 67 123 25 -3 29 -11 60 -113z m631 35
c-1 -33 -22 -58 -33 -40 -3 5 2 10 11 10 16 0 16 1 -2 15 -10 9 -13 14 -5 13
7 -2 16 3 19 11 3 8 0 11 -7 7 -12 -8 -16 6 -5 17 13 12 23 -3 22 -33z m-1844
-65 c-4 -8 -8 -15 -10 -15 -2 0 -4 7 -4 15 0 8 4 15 10 15 5 0 7 -7 4 -15z
m13 -47 c-3 -7 -5 -2 -5 12 0 14 2 19 5 13 2 -7 2 -19 0 -25z m-19 -3 c-3 -3
-9 2 -12 12 -6 14 -5 15 5 6 7 -7 10 -15 7 -18z m42 -25 c0 -5 -2 -10 -4 -10
-3 0 -8 5 -11 10 -3 6 -1 10 4 10 6 0 11 -4 11 -10z m446 -55 c-18 -19 -30
-74 -24 -115 7 -45 -18 -38 -26 8 -3 20 -6 56 -6 80 0 42 0 42 36 42 32 0 34
-2 20 -15z m175 1 c-7 -8 -16 -27 -21 -43 -6 -21 -8 -23 -9 -8 -1 11 -8 31
-17 43 -15 22 -14 22 22 22 30 0 35 -2 25 -14z m99 -11 c0 -17 -5 -25 -18 -25
-27 0 -42 -20 -42 -55 0 -35 15 -55 42 -55 13 0 18 -8 18 -25 0 -21 -5 -25
-30 -25 -19 0 -40 9 -55 25 -21 20 -25 34 -25 80 0 46 4 60 25 80 15 16 36 25
55 25 25 0 30 -4 30 -25z m46 8 c-2 -10 -12 -44 -20 -75 -17 -59 -37 -73 -64
-46 -27 27 -7 78 30 78 13 0 18 8 18 30 0 24 4 30 21 30 15 0 19 -5 15 -17z
m98 -78 c14 -52 26 -99 26 -105 0 -5 -11 -10 -25 -10 -16 0 -25 6 -25 15 0 9
-9 15 -24 15 -13 0 -26 -7 -30 -15 -5 -14 -56 -22 -56 -9 0 3 12 50 27 105 25
94 28 99 53 99 26 0 29 -5 54 -95z m146 70 c0 -15 -6 -25 -14 -25 -10 0 -15
-22 -20 -80 -7 -76 -9 -80 -32 -80 -23 0 -24 2 -24 80 0 64 -3 80 -15 80 -9 0
-15 9 -15 25 0 24 3 25 60 25 57 0 60 -1 60 -25z m70 -80 l0 -105 -27 0 -28 0
3 105 c3 104 4 105 28 105 24 0 24 0 24 -105z m157 79 c23 -23 25 -31 21 -84
-5 -70 -26 -100 -72 -100 -55 0 -76 31 -76 110 0 41 5 56 25 75 31 32 69 32
102 -1z m153 -4 c0 -16 -2 -30 -4 -30 -2 0 -9 14 -15 30 -8 24 -7 30 5 30 9 0
14 -10 14 -30z m-1010 -22 c0 -78 11 -118 31 -118 14 0 19 -7 19 -25 0 -23 -4
-25 -44 -25 l-43 0 -7 61 c-3 34 -6 82 -6 105 0 40 2 44 25 44 23 0 25 -4 25
-42z m187 15 c26 -39 24 -127 -4 -155 -25 -24 -73 -28 -97 -8 -39 31 -45 140
-10 175 9 8 33 15 54 15 32 0 43 -5 57 -27z m799 -13 c9 -22 20 -40 25 -40 5
0 9 18 9 40 0 37 2 40 26 40 l27 0 -7 -77 c-3 -42 -6 -89 -6 -105 0 -24 -4
-28 -27 -28 -24 0 -32 8 -50 48 l-21 47 -1 -47 c-1 -44 -3 -48 -26 -48 -25 0
-25 1 -25 89 0 106 4 121 36 121 19 0 28 -9 40 -40z"/>
<path d="M886 737 c-4 -21 -10 -45 -13 -53 -4 -10 2 -14 21 -14 28 0 28 -2 6
80 -6 23 -7 22 -14 -13z"/>
<path d="M1190 750 c0 -16 5 -21 23 -18 12 2 22 10 22 18 0 8 -10 16 -22 18
-18 3 -23 -2 -23 -18z"/>
<path d="M1190 660 c0 -16 5 -21 23 -18 12 2 22 10 22 18 0 8 -10 16 -22 18
-18 3 -23 -2 -23 -18z m30 0 c0 -5 -4 -10 -10 -10 -5 0 -10 5 -10 10 0 6 5 10
10 10 6 0 10 -4 10 -10z"/>
<path d="M1386 737 c-4 -21 -10 -45 -13 -53 -4 -10 2 -14 21 -14 28 0 28 -2 6
80 -6 23 -7 22 -14 -13z"/>
<path d="M1085 457 c-4 -10 -5 -21 -1 -24 10 -10 18 4 13 24 -4 17 -4 17 -12
0z"/>
<path d="M1452 498 c-18 -18 -15 -87 4 -95 20 -8 34 13 34 53 0 37 -20 60 -38
42z m28 -38 c0 -28 -11 -51 -21 -44 -10 6 -12 57 -3 67 11 10 24 -3 24 -23z"/>
<path d="M766 476 c-8 -31 9 -76 28 -76 18 0 26 33 17 68 -10 36 -37 41 -45 8z
m32 -37 c-4 -33 -4 -34 -15 -9 -12 28 -5 66 9 52 5 -5 8 -25 6 -43z"/>
<path d="M235 1710 c-3 -5 -1 -10 4 -10 6 0 11 5 11 10 0 6 -2 10 -4 10 -3 0
-8 -4 -11 -10z"/>
<path d="M2084 1544 c3 -9 6 -18 6 -20 0 -2 8 -4 18 -4 13 0 14 2 3 9 -7 5
-10 14 -7 20 4 6 0 11 -9 11 -12 0 -15 -5 -11 -16z"/>
<path d="M2106 1481 c0 -40 14 -91 24 -91 5 0 6 7 3 17 -4 10 -2 14 4 10 5 -3
10 1 10 9 0 8 -6 13 -14 10 -16 -7 -17 6 -1 22 9 9 9 12 -1 12 -7 0 -11 6 -8
14 3 8 0 16 -6 19 -8 3 -12 -5 -11 -22z"/>
<path d="M108 975 c-4 -16 -2 -34 3 -39 13 -14 16 -5 9 34 l-6 35 -6 -30z"/>
<path d="M2124 876 c5 -19 3 -26 -9 -26 -8 0 -15 -8 -14 -17 0 -12 2 -13 6 -5
3 8 9 10 16 3 9 -7 13 0 14 24 2 19 -2 37 -9 41 -8 5 -9 -1 -4 -20z"/>
<path d="M162 785 c-7 -14 -8 -24 -3 -20 5 3 12 1 16 -5 3 -5 0 -10 -7 -10
-10 0 -10 -2 1 -9 7 -5 11 -13 7 -19 -3 -6 1 -18 10 -27 14 -13 19 -14 25 -3
5 8 3 17 -6 24 -8 6 -15 22 -16 35 0 13 -4 32 -8 42 -6 17 -8 16 -19 -8z"/>
<path d="M2044 645 c5 -14 -5 -20 -27 -16 -14 3 -3 -32 12 -37 8 -3 11 0 8 5
-3 5 3 17 14 26 19 17 18 37 -3 37 -5 0 -8 -7 -4 -15z"/>
<path d="M307 543 c-4 -3 -2 -12 4 -20 8 -9 8 -17 1 -26 -9 -10 0 -26 34 -65
25 -29 50 -50 55 -46 5 3 8 0 7 -7 -2 -6 3 -14 11 -17 10 -3 11 0 5 9 -7 12
-5 12 9 0 9 -7 17 -19 17 -25 0 -6 -5 -4 -10 4 -5 8 -10 10 -10 4 0 -11 40
-52 53 -53 4 -1 7 -3 7 -7 -1 -3 9 -13 21 -23 25 -20 69 -17 49 3 -8 8 -13 7
-19 -2 -6 -10 -10 -10 -20 1 -9 11 -8 17 2 26 20 16 62 -19 65 -54 2 -33 9
-45 25 -45 8 0 8 3 2 8 -6 4 -11 18 -12 32 -1 14 1 19 4 13 3 -7 12 -13 21
-14 10 0 12 -3 6 -5 -7 -3 -10 -14 -7 -25 6 -22 78 -63 93 -54 6 3 10 2 10 -2
0 -5 9 -14 21 -21 12 -8 18 -9 14 -3 -3 6 1 11 10 11 8 0 18 -7 22 -16 3 -8
11 -13 19 -10 7 3 15 0 18 -7 3 -8 5 -7 5 2 1 12 4 11 14 -3 12 -16 13 -16 14
3 1 12 -2 21 -8 21 -5 0 -9 4 -9 10 0 5 7 7 15 4 8 -4 15 -13 15 -21 0 -8 7
-21 15 -29 12 -12 18 -12 35 -2 36 23 19 42 -55 59 -39 9 -90 26 -115 37 -32
15 -48 18 -57 10 -11 -9 -10 -13 4 -24 23 -17 12 -18 -21 0 -25 13 -25 14 -6
19 30 8 24 26 -12 43 -81 37 -245 180 -311 272 -31 42 -38 48 -50 35z m56 -56
c6 -15 -29 -21 -38 -6 -3 5 1 6 9 3 9 -3 16 -1 16 5 0 15 7 14 13 -2z m5 -39
c7 -7 12 -18 12 -26 0 -12 -3 -12 -15 -2 -8 7 -13 16 -10 20 3 5 -1 11 -7 13
-7 3 -8 6 -2 6 5 1 15 -4 22 -11z m67 -56 c-2 -3 -11 0 -18 6 -8 7 -16 10 -18
7 -3 -2 -5 4 -6 15 -2 18 0 18 23 -2 13 -12 22 -24 19 -26z m87 -84 c-6 -14
-22 -8 -22 8 0 11 -6 13 -19 9 -11 -3 -22 -1 -26 4 -4 7 1 8 12 4 15 -5 16 -3
6 8 -28 30 -11 35 20 6 18 -18 31 -35 29 -39z m155 -95 c2 -6 -5 -13 -17 -16
-11 -3 -20 -1 -20 4 0 5 8 9 18 9 15 0 15 2 2 11 -12 9 -12 10 -1 7 8 -3 16
-9 18 -15z m78 -33 c19 -8 19 -9 -2 -9 -12 -1 -25 4 -28 9 -7 12 2 12 30 0z
m5 -30 c0 -5 -2 -10 -4 -10 -3 0 -8 5 -11 10 -3 6 -1 10 4 10 6 0 11 -4 11
-10z m37 4 c-3 -3 -12 -4 -19 -1 -8 3 -5 6 6 6 11 1 17 -2 13 -5z m23 -24 c0
-5 -2 -10 -4 -10 -3 0 -8 5 -11 10 -3 6 -1 10 4 10 6 0 11 -4 11 -10z m114 -7
c-5 -5 -12 -12 -16 -18 -4 -6 -8 -2 -8 8 0 9 7 17 17 17 9 0 12 -3 7 -7z"/>
<path d="M1921 519 c-13 -17 -20 -33 -16 -37 3 -4 10 0 15 8 6 9 10 10 10 3 0
-18 48 9 68 39 15 21 15 22 -1 9 -13 -10 -17 -10 -17 -1 0 10 -3 10 -15 0 -8
-7 -15 -19 -15 -26 0 -8 -4 -14 -10 -14 -15 0 -12 11 7 32 9 10 12 18 6 18 -5
0 -19 -14 -32 -31z"/>
<path d="M285 510 c3 -5 8 -10 11 -10 2 0 4 5 4 10 0 6 -5 10 -11 10 -5 0 -7
-4 -4 -10z"/>
<path d="M1942 468 c-15 -15 -21 -17 -17 -7 15 39 -40 8 -111 -64 -42 -42 -80
-77 -85 -77 -4 0 -11 -10 -14 -21 -5 -14 -10 -18 -14 -10 -5 8 -22 -2 -51 -30
-30 -30 -40 -44 -30 -47 8 -3 16 0 18 6 3 9 9 9 23 2 10 -6 19 -7 19 -3 0 5
14 14 31 22 18 8 34 23 37 33 4 16 7 17 14 6 7 -10 8 -8 4 5 -4 13 -1 17 11
15 10 -2 18 4 18 12 1 8 6 14 13 13 6 -2 9 4 6 11 -4 11 0 13 17 9 14 -4 20
-2 16 5 -7 11 -32 11 -43 -1 -4 -4 -12 -7 -17 -7 -6 0 0 9 13 20 16 14 27 17
39 11 13 -7 26 1 57 32 48 51 79 87 73 87 -3 0 -15 -10 -27 -22z m-35 -29 c1
-10 -2 -21 -8 -24 -5 -3 -6 0 -3 8 3 8 1 18 -5 22 -6 3 -11 -1 -11 -9 0 -9 -5
-16 -11 -16 -6 0 -8 -8 -4 -19 3 -11 1 -22 -5 -26 -5 -3 -10 2 -10 12 0 15 -2
16 -10 3 -5 -8 -10 -11 -10 -7 0 14 52 74 64 74 7 0 13 -8 13 -18z m-122 -129
c3 -5 0 -7 -8 -4 -8 3 -18 0 -22 -5 -3 -6 -11 -8 -17 -5 -6 4 -5 10 3 15 19
12 36 11 44 -1z m-110 -60 c-10 -11 -22 -17 -27 -14 -4 3 2 14 14 24 29 23 37
17 13 -10z m65 23 c0 -5 -12 -14 -28 -20 l-27 -13 24 20 c25 22 31 24 31 13z"/>
<path d="M555 240 c3 -5 8 -10 11 -10 2 0 4 5 4 10 0 6 -5 10 -11 10 -5 0 -7
-4 -4 -10z"/>
<path d="M1554 212 c-57 -31 -110 -52 -139 -57 -11 -2 -54 -11 -95 -20 -77
-17 -300 -26 -300 -12 0 4 -7 7 -16 7 -32 0 7 -30 47 -36 22 -4 39 -11 39 -16
0 -6 20 -8 45 -6 33 2 44 0 40 -9 -2 -7 0 -13 6 -13 5 0 14 11 19 25 11 28 47
41 88 30 25 -7 25 -8 7 -15 -28 -12 -37 -12 -30 0 7 12 -2 12 -30 0 l-20 -9
20 -1 c17 -2 17 -3 -5 -11 -18 -6 -12 -7 24 -4 27 3 54 9 60 14 6 5 21 7 34 5
14 -3 22 1 22 11 0 8 -6 12 -14 9 -8 -3 -23 0 -33 6 -17 11 -17 11 0 6 10 -3
15 -2 12 4 -3 6 1 7 9 4 9 -3 28 -2 44 4 20 7 33 6 45 -3 16 -12 16 -13 -3
-18 -11 -3 -18 -1 -14 4 3 5 -3 9 -14 9 -10 0 -19 -7 -19 -16 0 -24 67 -10 89
18 9 13 20 19 24 15 4 -4 1 -7 -6 -7 -7 0 -11 -2 -8 -5 7 -7 38 5 38 15 0 5
-9 12 -21 15 -11 4 -18 9 -16 12 3 2 19 -2 35 -11 26 -14 31 -14 42 -1 7 8 16
12 21 9 5 -3 8 0 7 7 -2 6 3 14 11 17 9 3 11 0 6 -8 -5 -9 -4 -11 3 -6 8 5 9
13 2 25 -6 12 -5 22 2 29 19 19 -3 13 -58 -16z m36 -12 c-8 -5 -17 -7 -20 -5
-3 1 -11 -3 -18 -11 -10 -10 -10 -14 -1 -14 7 0 10 -3 6 -6 -3 -3 -15 -3 -27
1 -22 7 -21 7 6 24 16 9 37 18 48 19 16 1 18 -1 6 -8z m-406 -98 c3 -5 -18 -7
-47 -5 -75 6 -81 11 -15 12 31 1 59 -3 62 -7z"/>
<path d="M961 123 c5 -28 -2 -42 -18 -36 -10 4 -14 2 -9 -5 10 -16 46 -10 47
8 0 9 4 6 9 -7 7 -17 18 -23 39 -23 16 0 36 -3 45 -6 9 -3 16 -2 16 3 0 6 -19
16 -42 23 -24 6 -49 21 -56 31 -13 19 -33 26 -31 12z"/>
<path d="M1113 53 c9 -2 25 -2 35 0 9 3 1 5 -18 5 -19 0 -27 -2 -17 -5z"/>
</g>
</svg>
