<?xml version="1.0" standalone="no"?>
<!DOCTYPE svg PUBLIC "-//W3C//DTD SVG 20010904//EN"
 "http://www.w3.org/TR/2001/REC-SVG-20010904/DTD/svg10.dtd">
<svg version="1.0"
    xmlns="http://www.w3.org/2000/svg" width="512.000000pt" height="512.000000pt" viewBox="0 0 512.000000 512.000000" preserveAspectRatio="xMidYMid meet">

    <g transform="translate(0.000000,512.000000) scale(0.100000,-0.100000)" fill="#ffffff" stroke="none">
        <path d="M4415 4810 c-71 -10 -155 -54 -208 -109 -33 -33 -1352 -1891 -1453
-2046 -12 -19 -174 -726 -174 -761 0 -24 55 -74 82 -74 13 0 175 87 360 193
l338 192 724 1029 c502 711 730 1044 742 1078 24 74 16 196 -18 270 -74 159
-233 252 -393 228z m165 -189 c84 -50 125 -183 86 -274 -14 -33 -240 -355
-995 -1423 l-424 -600 -231 -131 c-127 -72 -232 -129 -234 -128 -2 2 22 117
53 255 l56 253 711 1009 c392 555 726 1019 742 1031 39 28 112 47 156 40 19
-3 55 -17 80 -32z"/>
        <path d="M1040 4275 c-337 -67 -621 -352 -697 -699 -14 -62 -16 -223 -16
-1286 0 -1213 0 -1215 22 -1305 28 -117 105 -270 181 -363 119 -142 300 -257
480 -305 l85 -22 1230 0 c1179 0 1233 1 1305 19 330 84 579 330 672 661 22 79
22 89 23 718 l0 639 -24 19 c-32 26 -82 25 -109 -4 l-22 -23 0 -576 c0 -606
-4 -683 -45 -801 -68 -197 -263 -390 -461 -456 -123 -41 -156 -42 -1384 -39
-1321 4 -1223 -2 -1378 74 -190 93 -338 273 -393 481 -21 77 -21 93 -21 1288
0 1188 0 1211 20 1287 65 240 248 434 489 516 l78 27 960 5 c528 3 968 9 978
14 40 20 50 93 17 126 -20 20 -33 20 -972 19 -738 -1 -968 -4 -1018 -14z"/>
    </g>
</svg>
